<svg id="图层_1" data-name="图层 1" xmlns="http://www.w3.org/2000/svg" viewBox="0 0 453.45 354.58"><defs><style>.cls-1{fill:#fff;fill-rule:evenodd;}</style></defs><title>KF03</title><polygon class="cls-1" points="357.88 76.49 359.93 77.75 362.08 79.24 368.02 83.83 373.56 88.64 378.68 93.46 383.59 98.51 387.89 103.55 391.99 108.83 395.68 114.1 398.96 119.61 401.82 125.11 404.28 130.85 406.33 136.58 408.18 142.66 409.4 148.62 410.43 154.81 411.04 161.12 411.25 167.66 411.04 172.7 410.84 175.23 410.74 175.8 410.74 176.49 410.74 177.86 410.02 182.91 409.2 187.96 407.97 192.77 406.64 197.59 405.72 199.88 404.9 202.29 403.05 207.11 402.44 208.14 401.93 209.28 400.8 211.58 398.44 216.16 395.68 220.52 394.25 222.7 392.81 225 391.17 227.06 389.53 229.24 387.79 231.3 386.15 233.48 382.36 237.61 378.47 241.74 378.57 248.62 378.88 252.06 379.6 255.61 380.31 259.05 381.24 262.61 382.36 266.05 383.69 269.72 385.03 273.16 386.77 276.83 388.51 280.27 390.66 283.94 395.27 291.05 400.7 298.39 395.99 298.16 391.48 297.81 386.97 297.24 382.77 296.44 378.47 295.41 374.48 294.14 370.48 292.65 366.79 290.93 363 288.99 359.52 286.81 356.04 284.4 352.76 281.88 349.48 279.01 346.51 275.91 343.54 272.59 340.78 269.26 336.68 271.32 332.58 273.5 329.2 274.88 325.93 276.37 319.17 279.12 312.2 281.53 308.62 282.68 305.13 283.94 302.78 284.63 301.96 286.46 301.55 287.38 301.34 287.84 301.24 288.07 301.24 288.41 299.5 292.31 298.48 294.14 297.96 295.06 297.55 296.1 295.61 299.99 293.35 303.43 292.12 305.15 291 306.99 288.54 310.43 285.98 313.87 283.21 317.08 280.35 320.52 277.27 323.73 275.63 325.34 274.81 326.14 274.1 327.06 270.2 330.5 266.31 334.17 273.48 333.37 276.96 332.91 278.71 332.68 280.55 332.56 285.26 331.76 287.62 331.3 290.08 330.96 294.69 330.04 299.4 329.12 303.9 327.98 306.16 327.4 308.51 326.94 313.02 325.68 317.63 324.53 321.93 323.04 322.95 322.58 323.47 322.36 324.08 322.24 326.33 321.55 330.64 319.95 331.66 319.49 332.17 319.26 332.79 319.14 335.04 318.46 339.24 316.62 343.54 314.9 351.94 311.12 356.65 313.75 361.47 316.28 366.38 318.34 371.4 320.29 376.42 321.78 381.54 323.04 386.77 323.96 392.09 324.76 397.32 324.99 402.75 324.99 408.18 324.65 413.81 324.19 419.44 323.27 425.18 322.13 430.91 320.63 436.86 319.03 434.4 316.05 432.14 313.18 429.99 310.08 428.15 307.1 426.2 303.78 424.56 300.57 423.03 297.13 421.8 293.8 420.47 290.13 419.44 286.58 418.52 282.79 417.8 279.01 417.09 274.99 416.68 270.98 416.37 266.85 416.27 262.72 418.42 259.97 420.67 257.33 424.87 252.06 428.76 246.55 430.61 243.8 432.45 241.16 435.73 235.43 436.04 234.63 436.44 233.94 437.26 232.56 438.8 229.81 440.13 226.83 441.57 223.96 442.8 220.98 443.41 219.49 444.13 218.12 445.15 215.02 446.18 212.04 446.59 210.43 446.79 209.63 447.1 208.94 448.12 205.96 448.84 202.75 449.66 199.65 451.09 193.46 452.01 187.04 452.83 180.62 453.24 173.96 453.24 172.24 453.35 170.64 453.45 167.43 453.35 163.07 453.14 158.71 452.83 154.47 452.42 150.34 451.19 141.97 449.56 133.94 447.3 125.92 444.64 118.12 443.1 114.22 441.46 110.43 437.98 103.09 435.93 99.31 433.78 95.64 429.27 88.53 424.15 81.53 421.49 78.09 418.73 74.77 415.75 71.33 412.68 68 409.51 64.68 406.23 61.47 399.26 55.05 391.89 48.97 386.87 45.07 379.19 39.45 371.4 34.4 367.31 31.88 363.31 29.59 359.21 27.29 355.22 25.23 346.82 21.1 342.52 19.15 338.32 17.43 329.61 14.11 320.8 11.24 316.19 9.75 311.69 8.49 306.98 7.22 302.37 6.19 292.84 4.24 283.32 2.75 273.48 1.49 263.55 0.69 253.41 0.12 243.16 0 232.2 0.12 221.65 0.69 211.31 1.6 201.17 2.98 191.03 4.59 181.3 6.77 171.77 9.17 162.45 12.16 153.13 15.25 144.22 18.92 135.31 22.93 126.81 27.41 118.3 32.11 110.21 37.38 102.22 42.89 94.54 48.97 87.99 54.24 81.84 59.75 76 65.25 70.67 71.1 65.55 76.83 60.95 82.8 56.54 88.87 52.65 95.18 48.96 101.37 45.78 107.91 42.81 114.45 40.36 121.21 38.1 127.98 36.36 134.97 34.93 141.97 34.01 149.31 34.21 149.54 37.69 147.01 41.38 144.72 48.86 140.48 56.54 136.58 64.53 133.25 74.06 129.47 78.87 127.75 83.89 126.37 87.06 119.84 90.85 113.53 95.16 107.34 99.97 101.49 105.19 95.64 111.03 90.02 117.38 84.52 124.35 79.24 130.49 74.77 136.95 70.64 143.4 66.74 150.16 63.19 156.92 59.86 163.99 56.88 171.16 54.13 178.63 51.83 186.01 49.66 193.69 47.82 201.48 46.22 209.57 44.95 217.66 43.92 226.06 43.23 234.46 42.89 243.16 42.89 251.36 42.89 259.45 43.23 267.34 43.81 275.22 44.84 282.91 45.87 290.49 47.36 297.86 49.08 301.44 50 305.13 51.15 312.2 53.33 319.17 55.73 325.93 58.48 332.58 61.58 339.04 64.91 345.49 68.46 351.74 72.25 357.88 76.49 357.88 76.49"/><path class="cls-1" d="M307.89,314.62l-.51-5.39-.82-5.28-1.13-5-1.54-5-1.74-4.93L300,284.11l-2.36-4.59-2.87-4.7-3.07-4.59-3.48-4.47-3.69-4.24-4.1-4.24-4.4-4.13-4.71-4-4.92-3.9-5.33-3.78-5.43-3.56L250,234.57,247.15,233l-2.77-1.38-5.84-2.87-5.94-2.41L226.46,224l-6.15-1.95-6.45-1.95-6.45-1.49-3.38-.8-3.28-.57-6.76-1-7-.8-7-.57-7.17-.34H156.6l-8.81.57-8.71.92-8.3,1.38-8.3,1.61L114.61,221l-7.89,2.41-7.48,3-8.09,3.33-4,1.84-3.79,2.06-3.89,2.06L75.79,238l-7.27,4.82-3.38,2.41-4.4,3.33-4.1,3.56-4.1,3.55-3.79,3.78-3.58,3.78L42,267.14,38.91,271l-2.66,4.13-2.46,4.13-2.15,4.24-2,4.24L28,292.14l-1.43,4.36-1.13,4.59-.92,4.59-.61,4.7-.41,4.82-.1,4.93.1,4.24.31,4.36.51,4.24.82,4.36.92,4,1.23,4.13,1.33,4,1.74,4,1.74,3.78,2.15,3.9,2.25,3.67L39,368.63l1.23,1.72,1.43,1.83,3,3.55,3.18,3.44,3.38,3.55-.51,3.21-.61,3.33-.72,3.21-.82,3.21-1,3-.61,1.49-.51,1.61-.72,1.38-.61,1.49-1.43,3-1.23,1.83-.61.92-.31.46-.21.57L40,413.24l-.61.92-.31.46-.21.57-2.36,3-2.56,3-1.43,1.38-.72.69-.61.8-1.54,1.38-1.43,1.49,3.28-.11,1.64-.11h1.74l3.18-.23,3.28-.11,1.43-.23.1-.11h1.43l3.07-.34,3-.46,1.43-.23.1-.11h1.43l.61-.23v-.11h.72l1.43-.23,2.87-.57,2.66-.69.61-.23v-.11H63l1.43-.23,3.69-1.26,1.74-.69,1.84-.57,1.64-.8,1.74-.69,3.28-1.49,3.07-1.72,1.43-.92.72-.46.82-.34,2.87-1.83.61-.57.72-.46,1.43-.92,4.1,1.83,4.3,1.84,4.3,1.61,4.51,1.61,4.4,1.38,4.61,1.38,4.61,1.15,4.81,1.15,4.71.92,4.81.8,9.94,1.38,10.14.69,5.12.23,5.33.23,5.63-.23,5.63-.23,5.53-.46,5.53-.46,5.33-.69,5.33-.8,1.23-.34,1.33-.23,2.66-.46,1.23-.34,1.33-.23,2.66-.46,5-1.38,5-1.38,4.81-1.61,4.92-1.61,4.71-1.95,4.71-1.95,2.25-1.15.51-.34.61-.23,1.23-.46,2.25-1.15.51-.34.61-.23,1.23-.46,4.71-2.75.51-.46.61-.34,1.23-.69,2.46-1.38,2.25-1.61.51-.46.61-.34,1.23-.69,4.71-3.21,5.94-4.82,2.87-2.52,2.87-2.41,2.66-2.75,2.66-2.64,2.46-2.75,1.13-1.38,1.23-1.26,1-1.49,1.13-1.38,2.15-2.75.41-.8.51-.69,1-1.38,1.84-2.75,2.66-5,2.36-5,2-5.28,1.74-5.28,1.23-5.5.92-5.5v-.8l.1-.69.21-1.38.31-2.75v-1.49l.1-1.38.1-2.75Zm-204,20.78a20.15,20.15,0,1,1,20.15-20.15A20.15,20.15,0,0,1,103.92,335.39Zm61.62,0a20.15,20.15,0,1,1,20.15-20.15A20.15,20.15,0,0,1,165.54,335.39Zm61.62,0a20.15,20.15,0,1,1,20.15-20.15A20.15,20.15,0,0,1,227.17,335.39Z" transform="translate(-23.34 -72.3)"/></svg>