<svg id="图层_1" data-name="图层 1" xmlns="http://www.w3.org/2000/svg" viewBox="0 0 825 349.63"><defs><style>.cls-1,.cls-2{fill:#040000;}.cls-2,.cls-3{fill-rule:evenodd;}.cls-3{fill:#b81c22;}</style></defs><title>logo</title><path class="cls-1" d="M47.6,470.24,35.95,426.32h6l6.68,28.79q1.08,4.52,1.86,9,1.68-7,2-8.12l8.36-29.65h7l6.29,22.23a117.48,117.48,0,0,1,3.42,15.54q.84-4.16,2.19-9.55l6.89-28.22h5.84l-12,43.91h-5.6l-9.25-33.46q-1.17-4.2-1.38-5.15-.69,3-1.29,5.15l-9.31,33.46Z" transform="translate(-8.43 -121.35)"/><path class="cls-1" d="M102.55,470.24V426.32H134.3v5.18H108.36V445h24.29v5.15H108.36v14.95h27v5.18Z" transform="translate(-8.43 -121.35)"/><path class="cls-1" d="M222.56,454.84l5.81,1.46q-1.82,7.16-6.57,10.92A18.12,18.12,0,0,1,210.19,471q-7.1,0-11.54-2.89a18,18,0,0,1-6.77-8.38,29.84,29.84,0,0,1-2.32-11.77,25.87,25.87,0,0,1,2.62-12,17.93,17.93,0,0,1,7.46-7.75,21.76,21.76,0,0,1,10.65-2.65,18,18,0,0,1,11.08,3.35,17.41,17.41,0,0,1,6.26,9.43l-5.72,1.35a13.53,13.53,0,0,0-4.43-7,11.81,11.81,0,0,0-7.31-2.19A14.18,14.18,0,0,0,201.7,433a12.78,12.78,0,0,0-4.78,6.51,26.17,26.17,0,0,0-1.38,8.43,26.8,26.8,0,0,0,1.63,9.78,12.18,12.18,0,0,0,5.08,6.25,14.26,14.26,0,0,0,7.46,2.06,12.5,12.5,0,0,0,8.27-2.82A14.4,14.4,0,0,0,222.56,454.84Z" transform="translate(-8.43 -121.35)"/><path class="cls-1" d="M238.36,448.85q0-10.93,5.87-17.12t15.16-6.19a21,21,0,0,1,11,2.91,19,19,0,0,1,7.44,8.1,26.34,26.34,0,0,1,2.56,11.79,25.9,25.9,0,0,1-2.69,12,18.47,18.47,0,0,1-7.64,8A21.85,21.85,0,0,1,259.36,471a20.77,20.77,0,0,1-11.08-3,19.28,19.28,0,0,1-7.4-8.18A24.73,24.73,0,0,1,238.36,448.85Zm6,.09q0,7.94,4.27,12.5a14.89,14.89,0,0,0,21.5,0q4.24-4.61,4.24-13.09a22.51,22.51,0,0,0-1.81-9.36,13.9,13.9,0,0,0-5.3-6.2,14.4,14.4,0,0,0-7.83-2.2,14.85,14.85,0,0,0-10.62,4.24Q244.35,439,244.35,448.94Z" transform="translate(-8.43 -121.35)"/><path class="cls-1" d="M292.38,470.24V426.32h6L321.4,460.8V426.32H327v43.91h-6L298,435.73v34.51Z" transform="translate(-8.43 -121.35)"/><path class="cls-1" d="M341.28,470.24V426.32h6L370.3,460.8V426.32h5.57v43.91h-6l-23.06-34.51v34.51Z" transform="translate(-8.43 -121.35)"/><path class="cls-1" d="M390.35,470.24V426.32H422.1v5.18H396.17V445h24.29v5.15H396.17v14.95h27v5.18Z" transform="translate(-8.43 -121.35)"/><path class="cls-1" d="M467.08,454.84l5.81,1.46q-1.82,7.16-6.57,10.92A18.12,18.12,0,0,1,454.7,471q-7.1,0-11.54-2.89a18,18,0,0,1-6.77-8.38,29.84,29.84,0,0,1-2.32-11.77,25.87,25.87,0,0,1,2.62-12,17.93,17.93,0,0,1,7.46-7.75,21.76,21.76,0,0,1,10.65-2.65,18,18,0,0,1,11.08,3.35,17.41,17.41,0,0,1,6.26,9.43l-5.72,1.35a13.53,13.53,0,0,0-4.43-7,11.81,11.81,0,0,0-7.31-2.19,14.18,14.18,0,0,0-8.46,2.43,12.78,12.78,0,0,0-4.78,6.51,26.17,26.17,0,0,0-1.38,8.43,26.8,26.8,0,0,0,1.63,9.78,12.18,12.18,0,0,0,5.08,6.25,14.26,14.26,0,0,0,7.46,2.06,12.5,12.5,0,0,0,8.27-2.82A14.4,14.4,0,0,0,467.08,454.84Z" transform="translate(-8.43 -121.35)"/><path class="cls-1" d="M495.82,470.24V431.51H481.35v-5.18h34.8v5.18H501.63v38.73Z" transform="translate(-8.43 -121.35)"/><path class="cls-1" d="M589.44,453v-5.15l18.6,0v16.3a33,33,0,0,1-8.84,5.14,26.23,26.23,0,0,1-9.34,1.72,24.93,24.93,0,0,1-11.76-2.77,18.31,18.31,0,0,1-8-8,25.21,25.21,0,0,1-2.7-11.71,27.19,27.19,0,0,1,2.68-12,17.86,17.86,0,0,1,7.71-8.25,24.14,24.14,0,0,1,11.59-2.7,23,23,0,0,1,8.61,1.54,14.31,14.31,0,0,1,6,4.3,19,19,0,0,1,3.32,7.19L602.14,440a16.31,16.31,0,0,0-2.46-5.27,10,10,0,0,0-4.19-3.07,15.32,15.32,0,0,0-6-1.15,17.73,17.73,0,0,0-6.89,1.21,12.85,12.85,0,0,0-4.69,3.19,15.26,15.26,0,0,0-2.77,4.35,23,23,0,0,0-1.68,8.84,21.44,21.44,0,0,0,2,9.82,13,13,0,0,0,5.89,5.87,18.28,18.28,0,0,0,8.21,1.91,19.48,19.48,0,0,0,7.37-1.45,19,19,0,0,0,5.45-3.1V453Z" transform="translate(-8.43 -121.35)"/><path class="cls-1" d="M621,470.24V426.32h5.81v38.73H648.4v5.18Z" transform="translate(-8.43 -121.35)"/><path class="cls-1" d="M658.15,448.85q0-10.93,5.87-17.12t15.16-6.19a21,21,0,0,1,11,2.91,19,19,0,0,1,7.44,8.1,26.34,26.34,0,0,1,2.56,11.79,25.9,25.9,0,0,1-2.69,12,18.47,18.47,0,0,1-7.64,8A21.85,21.85,0,0,1,679.15,471a20.77,20.77,0,0,1-11.08-3,19.28,19.28,0,0,1-7.4-8.18A24.73,24.73,0,0,1,658.15,448.85Zm6,.09q0,7.94,4.27,12.5a14.89,14.89,0,0,0,21.5,0q4.24-4.61,4.24-13.09a22.51,22.51,0,0,0-1.81-9.36,13.9,13.9,0,0,0-5.3-6.2,14.4,14.4,0,0,0-7.83-2.2,14.85,14.85,0,0,0-10.62,4.24Q664.14,439,664.14,448.94Z" transform="translate(-8.43 -121.35)"/><path class="cls-1" d="M712,470.24V426.32h16.47a20.45,20.45,0,0,1,8.07,1.33,10.4,10.4,0,0,1,4.76,4.11,10.82,10.82,0,0,1,1.72,5.79,10,10,0,0,1-1.53,5.3,10.89,10.89,0,0,1-4.61,4,11.49,11.49,0,0,1,6.12,4,10.67,10.67,0,0,1,2.14,6.65,12.85,12.85,0,0,1-1.3,5.73,11.15,11.15,0,0,1-3.22,4.09,13.5,13.5,0,0,1-4.81,2.17,29.15,29.15,0,0,1-7.08.74Zm5.81-25.46h9.49a21.16,21.16,0,0,0,5.54-.51,6.16,6.16,0,0,0,3.34-2.18,6.32,6.32,0,0,0,1.12-3.84,7,7,0,0,0-1-3.84,5.28,5.28,0,0,0-3-2.28,24.86,24.86,0,0,0-6.68-.62H717.8Zm0,20.28h10.93a25.41,25.41,0,0,0,4-.21,9.54,9.54,0,0,0,3.36-1.2,6.4,6.4,0,0,0,2.22-2.45,7.62,7.62,0,0,0,.87-3.69,7.31,7.31,0,0,0-1.26-4.27,6.65,6.65,0,0,0-3.49-2.55A21.62,21.62,0,0,0,728,450H717.8Z" transform="translate(-8.43 -121.35)"/><path class="cls-1" d="M752.93,470.24l16.86-43.91H776l18,43.91H787.4l-5.12-13.3H763.92l-4.82,13.3Zm12.67-18h14.89L775.9,440q-2.1-5.54-3.11-9.11a56,56,0,0,1-2.37,8.39Z" transform="translate(-8.43 -121.35)"/><path class="cls-1" d="M803,470.24V426.32h5.81v38.73h21.62v5.18Z" transform="translate(-8.43 -121.35)"/><path class="cls-1" d="M161.11,451.79v-6.14h6.14v6.14Z" transform="translate(-8.43 -121.35)"/><path class="cls-1" d="M536.93,451.79v-6.14h6.14v6.14Z" transform="translate(-8.43 -121.35)"/><path class="cls-2" d="M832.93,226.51H716.08v42.76h65.79a71.25,71.25,0,1,1-16-85.25h54.62a115.1,115.1,0,1,0,13,53.06C833.43,233.52,833.25,230,832.93,226.51Z" transform="translate(-8.43 -121.35)"/><path class="cls-2" d="M532.11,269.25a71.24,71.24,0,1,1,0-64.29h47a115.12,115.12,0,1,0,0,64.29Z" transform="translate(-8.43 -121.35)"/><path class="cls-1" d="M363.17,125.94,238.12,342.06l-19-32.88L325,125.94h38.15m8-4.59H322.37L213.79,309.19l24.32,42,133-229.88Z" transform="translate(-8.43 -121.35)"/><polygon class="cls-2" points="49.01 0 0 0 133.14 229.88 181.29 146.41 193.45 167.55 218.02 125.02 181.29 61.46 133.14 145.3 49.01 0 49.01 0"/><polygon class="cls-3" points="181.41 188.82 157.84 229.88 205.11 229.88 181.41 188.82 181.41 188.82"/></svg>