<svg id="图层_1" data-name="图层 1" xmlns="http://www.w3.org/2000/svg" viewBox="0 0 476.26 344.25"><defs><style>.cls-1{fill:#fff;fill-rule:evenodd;}</style></defs><title>KF</title><polygon class="cls-1" points="337.67 189.58 337.5 191.23 337.34 191.56 337.34 192.06 337.34 193.05 336.34 196.36 334.68 199.34 333.52 200.66 332.85 201.32 332.52 201.66 332.35 201.66 332.35 201.82 332.35 202.15 332.02 202.15 331.86 202.15 331.86 202.32 331.52 202.65 330.86 203.31 329.53 204.47 326.54 206.12 323.21 207.11 322.22 207.11 321.72 207.11 321.38 207.28 319.72 207.44 315.9 207.11 312.74 206.12 309.59 204.47 306.93 202.15 305.6 200.66 304.6 199.34 302.94 196.36 301.94 193.05 301.78 191.23 301.94 189.58 301.94 185.94 302.94 182.8 304.6 179.65 306.93 177.01 309.59 174.69 312.74 173.04 315.9 172.04 319.72 171.71 321.88 171.88 324.21 172.38 321.72 170.72 319.39 169.4 314.41 167.41 309.09 166.25 306.26 165.92 303.61 165.92 299.78 166.09 296.13 166.59 292.64 167.41 289.48 168.57 286.32 170.06 283.33 171.88 280.51 174.03 277.85 176.51 275.35 179.16 273.19 181.97 271.37 184.95 269.87 188.26 268.71 191.4 267.88 194.87 267.38 198.35 267.38 202.15 267.38 205.63 267.88 209.26 268.71 212.57 269.87 215.88 271.37 218.86 273.19 221.84 275.35 224.65 277.85 227.46 280.51 229.94 283.33 232.09 286.32 233.91 289.48 235.57 292.64 236.73 296.13 237.55 299.78 238.05 303.61 238.38 305.27 238.21 305.6 238.05 306.1 238.05 307.09 238.05 310.75 237.55 314.07 236.73 317.4 235.57 320.39 233.91 321.88 232.92 323.55 232.09 324.88 230.94 326.37 229.94 327.7 228.62 328.37 227.96 328.7 227.63 328.86 227.46 329.2 227.46 331.52 224.65 332.52 223.16 333.68 221.84 335.51 218.86 337.01 215.88 338.17 212.57 339 209.26 339.5 205.63 339.5 204.63 339.5 204.14 339.67 203.81 340 202.15 339.67 198.68 339.17 195.53 338.5 192.39 337.67 189.58 337.67 189.58"/><polygon class="cls-1" points="206.72 189.58 206.56 191.23 206.39 191.56 206.39 192.06 206.39 193.05 205.39 196.36 203.73 199.34 202.57 200.66 201.9 201.32 201.57 201.66 201.41 201.66 201.41 201.82 201.41 202.15 201.07 202.15 200.91 202.15 200.91 202.32 200.57 202.65 199.91 203.31 198.58 204.47 195.59 206.12 192.27 207.11 191.27 207.11 190.77 207.11 190.44 207.28 188.78 207.44 184.95 207.11 181.63 206.12 178.47 204.47 175.81 202.15 174.49 200.66 173.49 199.34 171.83 196.36 170.83 193.05 170.66 191.23 170.83 189.58 170.83 185.94 171.83 182.8 173.49 179.65 175.81 177.01 178.47 174.69 181.63 173.04 184.95 172.04 188.78 171.71 190.77 171.88 193.1 172.38 190.6 170.72 188.28 169.4 185.78 168.24 183.46 167.41 178.14 166.25 175.32 165.92 172.66 165.92 168.84 166.09 165.18 166.59 161.69 167.41 158.53 168.57 155.21 170.06 152.22 171.88 149.39 174.03 146.9 176.51 144.41 179.16 142.25 181.97 140.42 184.95 138.92 188.26 137.76 191.4 136.93 194.87 136.43 198.35 136.26 202.15 136.43 205.63 136.93 209.26 137.76 212.57 138.92 215.88 140.42 218.86 142.25 221.84 144.41 224.65 146.9 227.46 149.39 229.94 152.22 232.09 155.21 233.91 158.53 235.57 161.69 236.73 165.18 237.55 168.84 238.05 172.66 238.38 174.32 238.21 174.65 238.05 175.15 238.05 176.15 238.05 179.8 237.55 183.13 236.73 186.45 235.57 189.44 233.91 192.43 232.09 193.76 230.94 195.26 229.94 196.59 228.62 197.25 227.96 197.58 227.63 197.75 227.46 198.08 227.46 198.08 227.13 198.25 226.97 198.58 226.63 199.25 225.97 200.57 224.65 201.57 223.16 202.74 221.84 204.56 218.86 206.06 215.88 207.22 212.57 208.05 209.26 208.55 205.63 208.55 204.63 208.55 204.14 208.72 203.81 209.05 202.15 208.72 198.68 208.22 195.53 207.55 192.39 206.72 189.58 206.72 189.58"/><polygon class="cls-1" points="237.97 0.17 228.82 0.17 220.02 0.66 211.21 1.65 202.74 3.14 194.26 4.8 186.12 6.95 178.14 9.43 170.5 12.57 162.69 15.72 155.21 19.52 147.9 23.66 140.75 28.29 133.61 33.09 126.79 38.54 120.15 44.33 113.83 50.62 109.01 55.09 104.69 59.88 96.72 69.64 89.4 79.74 83.09 90.16 77.44 100.91 72.95 111.99 69.13 123.41 67.47 129.2 66.3 135.32 58.33 133.83 51.02 132.67 44.37 132.18 38.22 132.18 35.23 132.34 32.57 132.84 27.25 133.66 22.43 135.15 20.11 135.98 18.11 137.14 14.29 139.62 10.8 142.43 7.81 145.91 5.32 149.71 3.32 154.18 1.66 158.97 1 161.46 0.67 164.27 0 170.06 0 176.51 0.17 183.79 0.5 187.26 1.16 190.9 1.66 194.21 2.49 197.52 4.65 203.97 5.65 206.78 6.98 209.76 10.14 215.39 11.8 217.87 13.79 220.51 15.79 223 18.11 225.48 20.27 227.63 22.77 229.78 25.26 231.76 28.08 233.91 33.9 237.55 40.38 241.03 47.19 243.84 50.85 245.16 54.84 246.49 58.66 247.48 62.81 248.64 71.62 250.62 76.44 251.28 81.59 252.28 85.58 252.77 90.07 253.27 91.23 255.58 92.73 257.9 94.22 260.05 96.05 262.04 97.88 263.69 99.87 265.18 102.03 266.5 104.53 267.83 109.34 269.48 112 270.14 114.99 270.64 121.14 270.97 124.47 270.8 128.12 270.64 120.31 262.7 116.66 258.73 113.33 254.92 110.01 250.79 107.18 246.82 104.36 242.68 102.03 238.71 99.54 234.41 97.38 230.27 93.72 222 90.9 213.4 89.07 204.8 88.07 199.17 87.58 193.38 87.08 187.43 87.08 181.47 87.41 172.38 88.57 163.61 90.4 155.17 93.06 147.06 96.38 139.29 100.54 131.84 105.36 124.73 108.02 121.26 111.17 118.11 117.15 111.83 123.64 106.53 130.45 101.9 137.59 98.43 145.07 95.45 152.88 93.47 161.03 92.31 169.5 92.14 173.49 91.98 177.64 92.31 181.63 92.64 185.78 93.47 193.43 95.45 197.09 96.78 200.91 98.43 207.89 101.9 211.21 104.05 214.7 106.53 217.86 109.02 221.18 111.83 227.5 118.11 233.15 124.9 235.8 128.37 238.3 132.01 243.12 124.9 248.93 118.11 254.91 111.83 261.4 106.53 268.21 101.9 275.35 98.43 282.83 95.45 290.64 93.47 298.79 92.31 307.26 92.14 311.25 91.98 315.4 92.31 319.39 92.64 323.55 93.47 331.19 95.45 334.85 96.78 338.67 98.43 345.65 101.9 348.97 104.05 352.46 106.53 355.62 109.02 358.94 111.83 365.26 118.11 368.08 121.26 370.74 124.73 375.73 131.84 379.71 139.29 381.54 143.09 383.2 147.06 384.53 151.03 385.7 155.17 387.69 163.61 388.69 172.38 389.02 176.84 389.19 181.47 389.02 187.43 388.69 193.38 388.02 199.17 387.19 204.8 386.19 209.1 385.03 213.4 383.7 217.7 382.21 222 380.38 225.97 378.38 230.27 377.22 232.26 376.22 234.41 374.06 238.71 371.4 242.68 368.75 246.82 365.75 250.79 362.76 254.92 361.77 255.75 360.94 256.74 359.27 258.73 355.78 262.7 348.14 270.64 351.46 270.8 354.79 270.97 357.78 270.8 358.44 270.64 359.27 270.64 360.94 270.64 362.26 270.31 362.93 270.14 363.76 270.14 366.58 269.48 367.08 269.15 367.75 268.98 369.08 268.65 371.74 267.83 373.9 266.5 376.22 265.18 378.22 263.69 380.21 262.04 381.87 260.05 383.54 257.9 384.87 255.58 386.36 253.27 388.19 252.94 390.18 252.77 394.17 252.28 390.85 257.74 387.36 263.36 383.7 268.82 381.71 271.46 380.71 272.79 380.21 273.45 379.88 274.28 379.21 274.77 378.72 275.44 377.72 276.76 375.73 279.41 371.4 284.7 366.75 289.83 365.42 290.99 364.26 292.31 361.93 294.96 352.96 302.9 348.31 306.7 345.98 308.52 343.82 310.51 339 313.81 334.35 317.29 329.36 320.43 328.03 321.09 327.37 321.42 327.04 321.59 326.87 321.92 324.54 323.57 325.37 320.6 326.04 317.79 326.37 314.81 326.54 311.83 326.37 308.36 325.87 305.05 325.04 301.9 324.21 299.09 322.71 296.28 321.22 293.63 319.39 291.15 317.23 288.83 315.24 287.01 313.41 285.53 311.42 284.2 309.59 283.21 307.43 282.05 305.43 281.23 301.28 280.07 297.62 279.57 293.97 279.41 290.14 279.57 286.99 280.07 282.5 281.23 278.35 283.21 274.52 285.53 271.2 288.83 266.71 293.63 264.88 296.28 263.72 299.09 262.56 301.9 261.89 305.05 261.4 311.83 261.4 314.97 261.89 318.12 262.56 321.09 263.72 324.07 264.88 326.72 266.71 329.53 268.71 332.01 271.2 334.66 273.03 336.48 275.19 338.13 279.68 341.11 282.83 342.27 286.32 343.26 289.98 343.76 293.97 344.25 297.12 343.92 300.12 343.59 305.93 341.44 311.91 338.96 319.23 335.32 326.54 331.51 328.2 330.36 330.03 329.36 333.68 327.21 337.17 324.9 340.83 322.75 344.15 320.1 345.81 318.78 346.64 318.12 347.64 317.62 354.62 312.49 361.27 306.7 367.92 300.75 373.4 294.79 378.72 288.83 383.7 282.71 386.03 279.57 388.52 276.59 392.84 270.14 397 263.86 400.82 257.24 404.47 250.79 406.47 250.13 407.46 249.79 408.63 249.63 412.95 248.64 416.94 247.48 421.09 246.49 424.75 245.16 428.57 243.84 430.23 243.01 432.06 242.35 435.55 241.03 437.04 240.03 438.71 239.21 441.86 237.55 444.86 235.73 447.85 233.91 450.5 231.76 453.16 229.78 455.49 227.63 455.99 226.97 456.65 226.47 457.98 225.48 459.98 223 460.97 221.67 461.47 221.01 462.14 220.51 463.96 217.87 464.8 216.54 465.79 215.39 466.46 213.9 467.29 212.57 467.95 211.08 468.78 209.76 470.11 206.78 471.44 203.97 472.44 200.66 473.44 197.52 474.1 194.21 474.93 190.9 475.26 187.26 475.26 186.27 475.43 185.44 475.76 183.79 475.93 180.15 476.26 176.51 475.93 170.06 475.43 164.27 474.77 161.46 474.27 158.97 472.77 154.18 470.61 149.71 468.29 145.91 466.79 144.09 465.29 142.6 461.97 139.79 457.98 137.3 455.82 136.15 453.66 135.32 448.68 133.83 443.52 133 440.53 132.51 437.71 132.34 434.55 132.18 431.56 132.34 424.91 132.84 421.42 133.17 417.93 133.83 413.78 134.49 409.79 135.65 408.3 129.53 406.63 123.57 404.81 117.78 402.81 112.16 400.49 106.37 397.99 100.91 395.33 95.45 392.51 90.16 389.35 84.86 386.03 79.74 382.54 74.61 378.88 69.64 374.89 64.68 370.74 59.88 366.42 55.09 361.93 50.62 355.29 44.33 348.64 38.54 341.66 33.09 334.68 28.29 327.37 23.66 320.06 19.52 312.58 15.72 305.1 12.57 297.12 9.43 289.15 6.95 281 4.8 276.85 3.81 272.86 3.14 264.22 1.65 255.58 0.66 246.77 0.17 242.28 0 237.97 0.17 237.97 0.17"/></svg>