<?xml version="1.0" encoding="UTF-8"?>
<svg id="_图层_1" data-name="图层 1" xmlns="http://www.w3.org/2000/svg" viewBox="0 0 137.58 131.05">
  <defs>
    <style>
      .cls-1 {
        fill: #fff;
      }

      .cls-2 {
        fill: #feffff;
      }
    </style>
  </defs>
  <path class="cls-2" d="m24.63,114.34c-.54-.24-.93-.51-.3-1.05.39-.3.81-.57,1.23-.84,3.93-2.55,7.63-5.35,10.06-9.46,2.04-3.42,1.71-5.44-.84-7.96-14.24-14.24-20.48-31.27-17.36-51.39,1.77-11.35,6.97-21.18,14.54-29.71,4.57-5.17,10-9.34,15.95-12.83.36-.21.87-.27.93-.81-.12-.3-.33-.21-.51-.21-10.12,0-20.24-.21-30.34.06C8.32.44-.03,7.92,0,18.64.06,49.97,0,81.3,0,112.65,0,122.38,7.42,130.52,17.12,130.89c8.2.33,16.4.06,24.63.03.6.03,1.2.06,1.8.06h43.37c10.81,0,21.63.06,32.44,0,10.03,0,18.17-8.11,18.17-18.11v-17.75c0-.42.15-.87-.12-1.32-.54.03-.75.48-1.05.78-5.83,5.86-12.71,10.57-20.24,13.91-18.47,8.14-37.27,8.71-56.35,2.16-1.65-.6-3.45-.66-5.17-.24-2.52.63-5.02,1.38-7.51,2.13-7.33,2.28-14.81,3.3-22.47,1.8h0Z"/>
  <path class="cls-2" d="m46.41,63.72c.51-.66.78-1.05,1.08-1.44,3.93-4.99,7.87-9.97,11.8-14.99,1.14-1.44,2.28-2.91,3-4.66.84-1.98-.06-3.84-2.1-4.57-.9-.27-1.86-.39-2.82-.33-5.35-.03-10.72-.03-16.07,0-.75,0-1.5.09-2.22.27-1.68.42-2.7,2.13-2.28,3.84.3,1.14,1.2,2.04,2.34,2.31.72.18,1.47.27,2.22.24,3.24.03,6.52,0,9.76.03.36,0,.81-.24,1.08.3-.27.36-.54.72-.81,1.05-4.66,5.89-9.28,11.8-13.94,17.69-1.14,1.47-1.74,3.09-.9,4.9s2.55,2.13,4.3,2.25c1.38.09,2.79.03,4.21.03,4.87,0,9.7.03,14.57-.03,2.58-.03,3.96-1.59,3.69-3.99-.21-1.89-1.5-2.88-3.9-2.91-4.24-.03-8.47,0-13.01,0h0Z"/>
  <path class="cls-1" d="m99.42,53.09c0-4.72.03-9.4,0-14.12,0-2.4-1.53-3.9-3.81-3.87-2.22.03-3.69,1.53-3.72,3.84-.03,1.41,0,2.79,0,4.21v23.88c0,1.86,1.14,3.48,2.64,3.87,2.07.57,4.21-.66,4.75-2.73.09-.36.15-.72.12-1.11.06-4.66.03-9.31.03-13.97h0Z"/>
  <path class="cls-1" d="m81.25,47.93c.72-.93,1.47-1.8,2.7-2.04,2.37-.48,4.6,1.05,4.63,3.45.09,6.01.06,12.01,0,18.02,0,1.56-1.02,2.94-2.49,3.39-1.5.57-3.21.12-4.21-1.17-.51-.63-.72-.75-1.44-.18-2.73,2.22-5.83,2.61-9.16,1.53-5.35-1.74-7.54-5.92-8.14-10.99-.63-5.5,1.2-10.18,6.13-13.07,4.08-2.43,8.23-2.22,11.98,1.05h0Zm-10.63,10.96c.06,1.32.48,2.58,1.26,3.63,1.62,2.16,4.72,2.61,6.91.99.36-.27.69-.6.99-.99,1.68-2.28,1.68-6.04,0-8.32-.84-1.17-2.16-1.86-3.57-1.89-3.3-.21-5.62,2.34-5.59,6.58Zm31.45.18c-.24-7.72,4.84-13.49,12.04-13.7,7.66-.24,13.25,4.9,13.49,12.4.24,7.6-4.42,12.98-11.59,13.7-7.84.78-14.06-4.9-13.94-12.4h0Zm7.54-.72c-.06,1.5.39,2.97,1.29,4.21,1.65,2.16,4.75,2.58,6.91.9.33-.24.6-.54.87-.84,1.74-2.28,1.74-6.13.03-8.41-.84-1.14-2.16-1.86-3.57-1.89-3.24-.18-5.53,2.28-5.53,6.04Zm-10.18-5.26c0,4.66.03,9.31,0,13.97.03,2.13-1.65,3.9-3.78,3.96-.36,0-.75-.03-1.11-.12-1.5-.39-2.64-1.98-2.64-3.87v-23.88c0-1.41-.03-2.79,0-4.21.03-2.31,1.5-3.81,3.72-3.81,2.28-.03,3.81,1.47,3.81,3.87.03,4.69,0,9.4,0,14.09Z"/>
</svg>